<svg xmlns="http://www.w3.org/2000/svg" viewBox="0 0 120 120">
  <g stroke="#7a2a1c" stroke-width="1.6" stroke-linejoin="round" stroke-linecap="round">
    <ellipse cx="60" cy="80" rx="42" ry="12" fill="#fbf3e0"/>
    <path d="M20,74 Q60,92 100,74 Q94,89 60,90 Q26,89 20,74 Z" fill="#fbf3e0"/>
    <path d="M26,62 Q34,44 60,44 Q86,44 94,62 Q86,78 60,78 Q34,78 26,62 Z" fill="#f4c95d"/>
    <path d="M30,60 Q40,48 60,48 Q82,48 90,62 Q80,72 60,72 Q40,72 30,60 Z" fill="#f0a05a"/>
    <ellipse cx="48" cy="58" rx="3.4" ry="2" fill="#6f8f5a" transform="rotate(-20 48 58)"/>
    <ellipse cx="64" cy="54" rx="3.4" ry="2" fill="#6f8f5a" transform="rotate(15 64 54)"/>
    <ellipse cx="72" cy="64" rx="3.4" ry="2" fill="#6f8f5a" transform="rotate(-10 72 64)"/>
    <ellipse cx="56" cy="64" rx="3" ry="1.8" fill="#6f8f5a" transform="rotate(8 56 64)"/>
    <circle cx="42" cy="54" r="1.6" fill="#fff" stroke="none"/>
  </g>
</svg>
