<svg xmlns="http://www.w3.org/2000/svg" viewBox="0 0 120 120"><g stroke="#7a2a1c" stroke-width="1.6" stroke-linejoin="round" stroke-linecap="round"><path d="M60 96 V34" fill="none"/><path d="M60 40 q-9 -4 -10 -12 q9 2 10 10 z" fill="#f4c95d"/><path d="M60 40 q9 -4 10 -12 q-9 2 -10 10 z" fill="#f4c95d"/><path d="M60 52 q-9 -4 -10 -12 q9 2 10 10 z" fill="#f4c95d"/><path d="M60 52 q9 -4 10 -12 q-9 2 -10 10 z" fill="#f4c95d"/><path d="M60 64 q-9 -4 -10 -12 q9 2 10 10 z" fill="#f4c95d"/><path d="M60 64 q9 -4 10 -12 q-9 2 -10 10 z" fill="#f4c95d"/><path d="M60 76 q-9 -4 -10 -12 q9 2 10 10 z" fill="#f4c95d"/><path d="M60 76 q9 -4 10 -12 q-9 2 -10 10 z" fill="#f4c95d"/><path d="M60 34 q-7 -8 -3 -16 q7 5 3 16 M60 34 q7 -8 3 -16 q-7 5 -3 16" fill="#7fa860"/></g></svg>