<svg xmlns="http://www.w3.org/2000/svg" viewBox="0 0 120 120">
  <g stroke="#7a2a1c" stroke-width="1.6" stroke-linejoin="round" stroke-linecap="round">
    <path d="M50,34 Q54,26 58,34 M64,32 Q68,24 72,32" fill="none" stroke-width="1.1"/>
    <ellipse cx="60" cy="74" rx="40" ry="13" fill="#fbf3e0"/>
    <path d="M22,70 Q60,88 98,70 Q92,84 60,86 Q28,84 22,70 Z" fill="#e8d6b0"/>
    <path d="M26,66 Q60,52 94,66 Q60,80 26,66 Z" fill="#c0492f"/>
    <rect x="38" y="58" width="13" height="11" rx="2" fill="#9a5a2a" transform="rotate(-6 44 63)"/>
    <rect x="54" y="60" width="13" height="11" rx="2" fill="#7a2a1c" transform="rotate(5 60 65)"/>
    <rect x="68" y="57" width="13" height="11" rx="2" fill="#9a5a2a" transform="rotate(-4 74 62)"/>
    <path d="M44,72 L40,66 M50,73 L52,67 M64,72 L62,66 M72,72 L76,67" fill="none" stroke-width="1.1" stroke="#7fa860"/>
    <circle cx="62" cy="70" r="1.6" fill="#f0a05a" stroke="none"/>
    <circle cx="44" cy="62" r="1.3" fill="#fff" stroke="none"/>
  </g>
</svg>
