<svg xmlns="http://www.w3.org/2000/svg" viewBox="0 0 120 120">
  <g stroke="#7a2a1c" stroke-width="1.6" stroke-linejoin="round" stroke-linecap="round">
    <ellipse cx="60" cy="86" rx="47" ry="13" fill="#fbf3e0"/>
    <path d="M14,82 Q60,98 106,82 Q100,93 60,95 Q20,93 14,82 Z" fill="#e8d6b0"/>
    <path d="M28,76 Q24,62 36,58 Q44,56 46,64 Q42,70 48,74 Q40,82 30,80 Z" fill="#e8623f"/>
    <path d="M30,58 L34,50 M34,50 L40,54" fill="none" stroke-width="1.1"/>
    <path d="M64,80 Q60,66 72,62 Q80,60 82,68 Q78,74 84,78 Q76,84 66,82 Z" fill="#c0492f"/>
    <path d="M66,62 L70,54 M70,54 L76,58" fill="none" stroke-width="1.1"/>
    <ellipse cx="54" cy="62" rx="9" ry="7" fill="#f4c95d" transform="rotate(-18 54 62)"/>
    <path d="M48,58 L50,62 M52,57 L54,61 M56,57 L58,61 M60,59 L62,63" fill="none" stroke-width="1"/>
    <circle cx="88" cy="74" r="6" fill="#d9863c"/>
    <circle cx="40" cy="80" r="5" fill="#b9763c"/>
    <circle cx="50" cy="80" r="1" fill="#c0492f" stroke="none"/>
    <circle cx="72" cy="84" r="1" fill="#c0492f" stroke="none"/>
    <circle cx="60" cy="74" r="1" fill="#c0492f" stroke="none"/>
    <circle cx="36" cy="66" r="1.3" fill="#fff" stroke="none"/>
  </g>
</svg>
