<svg xmlns="http://www.w3.org/2000/svg" viewBox="0 0 120 120">
  <g stroke="#7a2a1c" stroke-width="1.6" stroke-linejoin="round" stroke-linecap="round">
    <line x1="30" y1="98" x2="58" y2="44"/>
    <path d="M20,60 Q40,40 78,46 Q96,49 104,60 Q96,71 78,74 Q40,80 20,60 Z" fill="#d9863c"/>
    <path d="M104,60 L116,52 L114,60 L116,68 Z" fill="#e8623f"/>
    <path d="M30,55 Q34,49 40,52" fill="none"/>
    <path d="M40,52 Q44,46 50,49" fill="none"/>
    <path d="M52,49 Q56,43 62,47" fill="none"/>
    <path d="M28,66 Q38,72 50,70" fill="none"/>
    <circle cx="34" cy="58" r="2.4" fill="#fbf3e0"/>
    <path d="M44,62 Q60,58 80,62" fill="none"/>
    <circle cx="32" cy="56" r="1" fill="#fff" stroke="none"/>
  </g>
</svg>
