<svg xmlns="http://www.w3.org/2000/svg" viewBox="0 0 120 120">
  <g stroke="#7a2a1c" stroke-width="1.6" stroke-linejoin="round" stroke-linecap="round">
    <ellipse cx="60" cy="84" rx="44" ry="12" fill="#fbf3e0"/>
    <path d="M18,80 Q60,95 102,80 Q96,90 60,92 Q24,90 18,80 Z" fill="#e8d6b0"/>
    <g fill="#b9763c">
      <path d="M44,74 Q42,64 48,60 L46,52 M48,60 L52,52 M48,60 L54,54 M48,60 L42,70 Q44,76 50,74"/>
    </g>
    <g fill="#9a5a2a">
      <path d="M62,76 Q60,66 66,62 L64,54 M66,62 L70,54 M66,62 L72,56 M66,62 L60,72 Q62,78 68,76"/>
    </g>
    <g fill="#b9763c">
      <path d="M52,82 Q50,72 56,68 L54,60 M56,68 L60,60 M56,68 L62,62 M56,68 L50,78 Q52,84 58,82"/>
    </g>
    <circle cx="49" cy="64" r="1.3" fill="#fff" stroke="none"/>
    <circle cx="67" cy="66" r="1.3" fill="#fff" stroke="none"/>
  </g>
</svg>
