<svg xmlns="http://www.w3.org/2000/svg" viewBox="0 0 120 120">
  <g stroke="#7a2a1c" stroke-width="1.6" stroke-linejoin="round" stroke-linecap="round">
    <ellipse cx="60" cy="74" rx="40" ry="22" fill="#fbf3e0"/>
    <ellipse cx="60" cy="70" rx="40" ry="22" fill="#fff"/>
    <path d="M36,66 Q42,52 50,62 Q58,52 60,64 Q54,74 44,74 Q36,74 36,66 Z" fill="#f4c95d"/>
    <path d="M62,60 Q70,46 78,58 Q86,50 86,62 Q80,72 70,72 Q62,70 62,60 Z" fill="#f0a05a"/>
    <path d="M48,76 Q56,66 64,76 Q72,68 76,78 Q66,86 56,84 Q48,82 48,76 Z" fill="#f4c95d"/>
    <path d="M50,52 Q44,82 70,84" fill="none" stroke="#e8623f" stroke-width="2.4"/>
    <circle cx="54" cy="60" r="1.6" fill="#fff" stroke="none"/>
  </g>
</svg>
