<svg xmlns="http://www.w3.org/2000/svg" viewBox="0 0 120 120">
  <g stroke="#7a2a1c" stroke-width="1.6" stroke-linejoin="round" stroke-linecap="round">
    <ellipse cx="60" cy="78" rx="42" ry="13" fill="#fbf3e0"/>
    <path d="M18,72 Q60,92 102,72 Q96,88 60,90 Q24,88 18,72 Z" fill="#fbf3e0"/>
    <path d="M24,68 Q60,52 96,68 Q60,84 24,68 Z" fill="#7fa860"/>
    <rect x="38" y="58" width="13" height="11" rx="3" fill="#fbf3e0" transform="rotate(-8 44 63)"/>
    <rect x="56" y="56" width="13" height="11" rx="3" fill="#f0a05a" transform="rotate(6 62 61)"/>
    <rect x="50" y="66" width="13" height="11" rx="3" fill="#fbf3e0" transform="rotate(4 56 71)"/>
    <rect x="68" y="61" width="12" height="10" rx="3" fill="#f0a05a" transform="rotate(-6 74 66)"/>
    <path d="M40,72 Q44,64 50,70 Q46,76 40,72 Z" fill="#6f8f5a"/>
    <path d="M66,72 Q70,64 76,70 Q72,76 66,72 Z" fill="#6f8f5a"/>
    <path d="M45,67 L45,73 M71,67 L71,73" fill="none" stroke="#7a2a1c" stroke-width="1.1"/>
    <circle cx="44" cy="62" r="1.6" fill="#fff" stroke="none"/>
  </g>
</svg>
