<svg xmlns="http://www.w3.org/2000/svg" viewBox="0 0 120 120">
  <g stroke="#7a2a1c" stroke-width="1.6" stroke-linejoin="round" stroke-linecap="round">
    <path d="M22,72 Q18,60 26,58 Q28,48 38,52 Q42,44 50,50 Q56,46 60,54 L62,72 Q64,86 50,90 L34,90 Q22,86 22,72 Z" fill="#f0a05a"/>
    <path d="M26,60 L30,72 M36,54 L38,72 M48,52 L48,72" fill="none" stroke-width="1" stroke="#c0832f"/>
    <ellipse cx="66" cy="56" rx="26" ry="18" fill="#fbf3e0"/>
    <ellipse cx="66" cy="54" rx="20" ry="13" fill="#fbf3e0"/>
    <path d="M50,52 Q60,44 76,48 Q86,52 80,58 Q70,52 58,58 Q70,62 80,58 Q72,66 60,62 Q52,58 50,52 Z" fill="#fff" stroke-width="1.1"/>
    <path d="M54,54 Q66,48 78,52 M52,58 Q64,54 78,57 M56,61 Q66,58 76,60" fill="none" stroke-width="1" stroke="#d9c9a8"/>
    <circle cx="60" cy="50" r="1.6" fill="#fff" stroke="none"/>
  </g>
</svg>
