<svg xmlns="http://www.w3.org/2000/svg" viewBox="0 0 120 120">
  <g stroke="#7a2a1c" stroke-width="1.6" stroke-linejoin="round" stroke-linecap="round">
    <ellipse cx="58" cy="84" rx="47" ry="13" fill="#fbf3e0"/>
    <path d="M11,80 Q58,96 105,80 Q99,91 58,93 Q17,91 11,80 Z" fill="#e8d6b0"/>
    <ellipse cx="38" cy="68" rx="11" ry="9" fill="#d9863c"/>
    <ellipse cx="38" cy="68" rx="5" ry="4" fill="#f4c95d"/>
    <rect x="52" y="56" width="20" height="18" rx="3" fill="#b9763c" transform="rotate(-5 62 65)"/>
    <path d="M55,60 L70,58 M54,66 L69,64" fill="none" stroke-width="0.9" stroke="#9a5a2a"/>
    <rect x="62" y="68" width="19" height="17" rx="3" fill="#9a5a2a" transform="rotate(6 71 76)"/>
    <path d="M68,52 L74,42 M58,50 L62,40" fill="none" stroke-width="1.1" stroke="#b9763c"/>
    <circle cx="35" cy="64" r="1.3" fill="#fff" stroke="none"/>
  </g>
</svg>
