<svg xmlns="http://www.w3.org/2000/svg" viewBox="0 0 120 120">
  <g stroke="#7a2a1c" stroke-width="1.6" stroke-linejoin="round" stroke-linecap="round">
    <ellipse cx="60" cy="84" rx="46" ry="12" fill="#fbf3e0"/>
    <path d="M16,80 Q60,96 104,80 Q98,90 60,92 Q22,90 16,80 Z" fill="#e8d6b0"/>
    <path d="M30,72 Q40,60 52,66 Q60,70 50,76 Q40,80 30,76 Z" fill="#9a5a2a"/>
    <path d="M48,68 Q62,56 76,64 Q82,68 72,74 Q58,78 48,74 Z" fill="#b9763c"/>
    <path d="M64,74 Q74,62 88,68 Q92,72 84,76 Q74,80 64,78 Z" fill="#9a5a2a"/>
    <path d="M40,70 Q48,66 56,70 M58,66 Q66,62 74,66" fill="none" stroke-width="0.9" stroke="#c0492f"/>
    <path d="M44,62 L40,54 M46,62 L46,54 M48,62 L52,55" fill="none" stroke-width="1" stroke="#7fa860"/>
    <ellipse cx="70" cy="60" rx="4" ry="2.4" fill="#f4c95d" transform="rotate(-20 70 60)"/>
    <circle cx="52" cy="70" r="1.3" fill="#fff" stroke="none"/>
    <circle cx="76" cy="70" r="1.3" fill="#fff" stroke="none"/>
  </g>
</svg>
