<svg xmlns="http://www.w3.org/2000/svg" viewBox="0 0 120 120">
  <g stroke="#7a2a1c" stroke-width="1.6" stroke-linejoin="round" stroke-linecap="round">
    <ellipse cx="60" cy="84" rx="44" ry="13" fill="#fbf3e0"/>
    <path d="M20,80 Q60,94 100,80 Q94,90 60,92 Q26,90 20,80 Z" fill="#e8d6b0"/>
    <path d="M30,72 Q26,52 44,44 Q56,38 72,42 Q92,48 90,70 Q92,82 60,84 Q28,82 30,72 Z" fill="#f3e6c8"/>
    <path d="M44,44 Q56,38 72,42 Q60,44 50,50 Q44,48 44,44 Z" fill="#fbf3e0"/>
    <ellipse cx="60" cy="68" rx="26" ry="14" fill="#f0a05a"/>
    <path d="M40,66 Q60,76 80,66" fill="none" stroke-width="1.1" stroke="#d9863c"/>
    <circle cx="50" cy="62" r="2.4" fill="#3a3320"/>
    <circle cx="68" cy="58" r="2.8" fill="#3a3320"/>
    <circle cx="60" cy="70" r="2.2" fill="#3a3320"/>
    <circle cx="74" cy="68" r="2" fill="#3a3320"/>
    <circle cx="44" cy="52" r="2" fill="#fff" stroke="none"/>
  </g>
</svg>
