<svg xmlns="http://www.w3.org/2000/svg" viewBox="0 0 120 120">
  <g stroke="#7a2a1c" stroke-width="1.6" stroke-linejoin="round" stroke-linecap="round">
    <ellipse cx="60" cy="80" rx="42" ry="12" fill="#fbf3e0"/>
    <path d="M22,75 Q60,93 98,75 Q92,86 60,88 Q28,86 22,75 Z" fill="#e8d6b0"/>
    <path d="M30,72 Q60,86 90,72 Q60,80 30,72 Z" fill="#fbf3e0"/>
    <rect x="36" y="56" width="11" height="22" rx="5" fill="#5f7a3e" transform="rotate(-14 41 67)"/>
    <rect x="52" y="52" width="11" height="22" rx="5" fill="#6e8a45" transform="rotate(6 57 63)"/>
    <rect x="66" y="56" width="11" height="22" rx="5" fill="#5f7a3e" transform="rotate(16 71 67)"/>
    <rect x="46" y="64" width="10" height="20" rx="5" fill="#7fa860" transform="rotate(-4 51 74)"/>
    <rect x="60" y="64" width="10" height="20" rx="5" fill="#6e8a45" transform="rotate(10 65 74)"/>
    <path d="M40,60 L42,72 M58,57 L57,70 M73,62 L70,73" fill="none" stroke-width="1" stroke="#3a4a26"/>
    <circle cx="50" cy="62" r="1.6" fill="#fff" stroke="none"/>
  </g>
</svg>
