<svg xmlns="http://www.w3.org/2000/svg" viewBox="0 0 120 120">
  <g stroke="#7a2a1c" stroke-width="1.6" stroke-linejoin="round" stroke-linecap="round">
    <ellipse cx="60" cy="84" rx="46" ry="12" fill="#fbf3e0"/>
    <path d="M16,80 Q60,96 104,80 Q98,90 60,92 Q22,90 16,80 Z" fill="#e8623f"/>
    <path d="M34,72 Q30,58 40,56 Q46,55 46,62 L44,74 Q40,78 34,76 Z" fill="#fbf3e0"/>
    <path d="M40,56 L38,48 M42,56 L44,49 M44,57 L48,50" fill="none" stroke-width="1.1"/>
    <path d="M56,76 Q52,62 62,60 Q68,59 68,66 L66,78 Q62,82 56,80 Z" fill="#fbf3e0"/>
    <path d="M62,60 L60,52 M64,60 L66,53 M66,61 L70,54" fill="none" stroke-width="1.1"/>
    <path d="M74,72 Q70,60 80,58 Q86,57 86,64 L84,74 Q80,78 74,76 Z" fill="#fbf3e0"/>
    <path d="M80,58 L78,51 M82,58 L84,52" fill="none" stroke-width="1.1"/>
    <path d="M30,82 Q60,88 92,82" fill="none" stroke-width="1" stroke="#c0492f"/>
    <circle cx="40" cy="64" r="1.3" fill="#fff" stroke="none"/>
    <circle cx="62" cy="68" r="1.3" fill="#fff" stroke="none"/>
  </g>
</svg>
