<svg xmlns="http://www.w3.org/2000/svg" viewBox="0 0 120 120">
  <g stroke="#7a2a1c" stroke-width="1.6" stroke-linejoin="round" stroke-linecap="round">
    <ellipse cx="60" cy="98" rx="38" ry="9" fill="#fbf3e0"/>
    <path d="M24,92 Q24,82 36,80 L84,80 Q96,82 96,92 Q60,102 24,92 Z" fill="#b9763c"/>
    <ellipse cx="60" cy="80" rx="36" ry="7" fill="#d9863c"/>
    <path d="M28,80 Q44,18 60,16 Q76,18 92,80 Z" fill="#c0492f"/>
    <path d="M34,80 Q46,26 60,24 Q74,26 86,80 Z" fill="#e8623f"/>
    <circle cx="60" cy="14" r="4" fill="#f4c95d"/>
    <path d="M44,52 Q60,48 76,52" fill="none"/>
    <path d="M40,66 Q60,62 80,66" fill="none"/>
    <circle cx="50" cy="44" r="1.6" fill="#fff" stroke="none"/>
  </g>
</svg>
