<svg xmlns="http://www.w3.org/2000/svg" viewBox="0 0 120 120">
  <g stroke="#7a2a1c" stroke-width="1.6" stroke-linejoin="round" stroke-linecap="round">
    <ellipse cx="60" cy="80" rx="44" ry="13" fill="#fbf3e0"/>
    <path d="M18,74 Q60,94 102,74 Q96,90 60,92 Q24,90 18,74 Z" fill="#fbf3e0"/>
    <path d="M24,72 Q60,86 96,72 Q60,82 24,72 Z" fill="#e8d6b0"/>
    <rect x="32" y="56" width="22" height="9" rx="3" fill="#c0492f" transform="rotate(-12 43 60)"/>
    <rect x="52" y="52" width="24" height="9" rx="3" fill="#e8623f" transform="rotate(7 64 56)"/>
    <rect x="44" y="64" width="24" height="9" rx="3" fill="#c0492f" transform="rotate(4 56 68)"/>
    <rect x="66" y="60" width="22" height="9" rx="3" fill="#e8623f" transform="rotate(-8 77 64)"/>
    <circle cx="42" cy="58" r="1.4" fill="#f4c95d"/>
    <circle cx="58" cy="55" r="1.4" fill="#f4c95d"/>
    <circle cx="74" cy="62" r="1.4" fill="#f4c95d"/>
    <circle cx="50" cy="67" r="1.3" fill="#7a2a1c"/>
    <circle cx="66" cy="66" r="1.3" fill="#7a2a1c"/>
    <path d="M38,52 L40,48 M70,50 L72,46" fill="none" stroke="#9a5a2a" stroke-width="1.1"/>
    <circle cx="48" cy="56" r="1.6" fill="#fff" stroke="none"/>
  </g>
</svg>
