<svg xmlns="http://www.w3.org/2000/svg" viewBox="0 0 120 120">
  <g stroke="#7a2a1c" stroke-width="1.6" stroke-linejoin="round" stroke-linecap="round">
    <ellipse cx="60" cy="80" rx="46" ry="14" fill="#fbf3e0"/>
    <ellipse cx="60" cy="78" rx="38" ry="10" fill="#f4c95d"/>
    <ellipse cx="60" cy="64" rx="16" ry="12" fill="#e8623f"/>
    <path d="M44,62 L34,54 M45,68 L34,66 M46,73 L37,78" fill="none" stroke-width="1.2"/>
    <path d="M76,62 L86,54 M75,68 L86,66 M74,73 L83,78" fill="none" stroke-width="1.2"/>
    <path d="M50,54 Q48,48 52,46 M70,54 Q72,48 68,46" fill="none" stroke-width="1.2" stroke="#c0492f"/>
    <ellipse cx="54" cy="62" rx="2.2" ry="1.4" fill="#fbf3e0" stroke="none"/>
    <ellipse cx="66" cy="62" rx="2.2" ry="1.4" fill="#fbf3e0" stroke="none"/>
    <circle cx="50" cy="76" r="1.2" fill="#fff" stroke="none"/>
    <circle cx="72" cy="74" r="1.2" fill="#fff" stroke="none"/>
  </g>
</svg>
