<svg xmlns="http://www.w3.org/2000/svg" viewBox="0 0 120 120">
  <g stroke="#7a2a1c" stroke-width="1.6" stroke-linejoin="round" stroke-linecap="round">
    <ellipse cx="60" cy="78" rx="46" ry="16" fill="#fbf3e0"/>
    <path d="M16,74 Q24,96 60,98 Q96,96 104,74 Q60,90 16,74 Z" fill="#e8d6b0"/>
    <path d="M22,72 Q60,86 98,72 Q92,88 60,90 Q28,88 22,72 Z" fill="#d9863c"/>
    <path d="M34,56 Q60,40 86,56 Q90,72 78,80 Q60,86 42,80 Q30,72 34,56 Z" fill="#c89a5e"/>
    <path d="M34,56 Q44,52 50,58 Q44,64 36,62 Z" fill="#fbf3e0"/>
    <path d="M86,56 Q76,52 70,58 Q76,64 84,62 Z" fill="#fbf3e0"/>
    <circle cx="48" cy="62" r="4" fill="#fbf3e0"/>
    <circle cx="48" cy="62" r="1.8" fill="#3a3320"/>
    <circle cx="72" cy="62" r="4" fill="#fbf3e0"/>
    <circle cx="72" cy="62" r="1.8" fill="#3a3320"/>
    <path d="M52,72 Q60,78 68,72" fill="none" stroke-width="1.2"/>
    <circle cx="55" cy="68" r="1.6" fill="#fff" stroke="none"/>
  </g>
</svg>
