<svg xmlns="http://www.w3.org/2000/svg" viewBox="0 0 120 120">
  <g stroke="#7a2a1c" stroke-width="1.6" stroke-linejoin="round" stroke-linecap="round">
    <rect x="52" y="20" width="16" height="14" rx="2" fill="#b9763c"/>
    <path d="M50,34 Q50,40 56,42 L56,52 Q42,58 42,76 L42,96 Q42,102 50,102 L70,102 Q78,102 78,96 L78,76 Q78,58 64,52 L64,42 Q70,40 70,34 Z" fill="#f4c95d"/>
    <path d="M44,72 L76,72 L76,96 Q76,100 70,100 L50,100 Q44,100 44,96 Z" fill="#d9863c"/>
    <rect x="46" y="78" width="28" height="16" rx="2" fill="#fbf3e0"/>
    <ellipse cx="60" cy="86" rx="11" ry="6" fill="#9a5a2a"/>
    <path d="M53,86 Q56,83 60,86 Q56,89 53,86 Z" fill="#f0a05a"/>
    <path d="M60,86 L67,83 M60,86 L67,89" fill="none" stroke-width="1.1"/>
    <circle cx="54" cy="58" r="1.8" fill="#fff" stroke="none"/>
  </g>
</svg>
