<svg xmlns="http://www.w3.org/2000/svg" viewBox="0 0 120 120">
  <g stroke="#7a2a1c" stroke-width="1.6" stroke-linejoin="round" stroke-linecap="round">
    <path d="M22,86 L98,72" fill="none" stroke="#b9763c" stroke-width="2.4"/>
    <path d="M34,52 Q60,40 86,52 Q92,66 78,76 Q60,82 42,76 Q28,66 34,52 Z" fill="#8a3322"/>
    <path d="M40,54 Q60,46 80,54 Q84,64 72,72 Q60,76 48,72 Q36,64 40,54 Z" fill="#e8d6b0" opacity="0.5"/>
    <path d="M44,52 Q60,44 78,52 M40,62 Q60,56 80,62 M46,70 Q60,66 74,70" fill="none" stroke="#fbf3e0" stroke-width="1.1"/>
    <path d="M50,46 Q52,40 56,44 M68,46 Q70,40 74,44" fill="none" stroke="#c9a25a" stroke-width="1.2"/>
    <circle cx="46" cy="54" r="1.4" fill="#fff" stroke="none"/>
  </g>
</svg>
