<svg xmlns="http://www.w3.org/2000/svg" viewBox="0 0 120 120">
  <g stroke="#7a2a1c" stroke-width="1.6" stroke-linejoin="round" stroke-linecap="round">
    <ellipse cx="60" cy="80" rx="42" ry="11" fill="#fbf3e0"/>
    <path d="M24,62 Q60,52 96,62 Q88,82 60,84 Q32,82 24,62 Z" fill="#fbf3e0"/>
    <path d="M30,64 Q60,56 90,64 Q84,78 60,80 Q36,78 30,64 Z" fill="#5e3a22"/>
    <ellipse cx="58" cy="66" rx="14" ry="8" fill="#b9763c"/>
    <path d="M48,66 Q58,62 68,66" fill="none" stroke="#9c5a28" stroke-width="1.2"/>
    <g fill="#7a4a22"><circle cx="42" cy="68" r="1.4"/><circle cx="78" cy="66" r="1.4"/><circle cx="60" cy="74" r="1.4"/></g>
    <path d="M40,60 Q44,56 48,60" fill="none" stroke="#e8623f" stroke-width="1.4"/>
    <circle cx="46" cy="64" r="1.4" fill="#fff" stroke="none"/>
  </g>
</svg>
