<svg xmlns="http://www.w3.org/2000/svg" viewBox="0 0 120 120">
  <g stroke="#7a2a1c" stroke-width="1.6" stroke-linejoin="round" stroke-linecap="round">
    <path d="M30,96 L52,30 M60,96 L72,28 M90,96 L92,30" fill="none" stroke="#b9763c" stroke-width="2.2"/>
    <g fill="#c97a3c">
      <ellipse cx="44" cy="44" rx="8" ry="6" transform="rotate(-16 44 44)"/>
      <ellipse cx="46" cy="56" rx="8" ry="6" transform="rotate(-16 46 56)"/>
      <ellipse cx="48" cy="68" rx="8" ry="6" transform="rotate(-16 48 68)"/>
    </g>
    <g fill="#e0a04a">
      <ellipse cx="69" cy="42" rx="8" ry="6"/><ellipse cx="69" cy="56" rx="8" ry="6"/><ellipse cx="69" cy="70" rx="8" ry="6"/>
    </g>
    <g fill="#a85a2a">
      <ellipse cx="91" cy="44" rx="7.5" ry="6" transform="rotate(12 91 44)"/>
      <ellipse cx="92" cy="58" rx="7.5" ry="6" transform="rotate(12 92 58)"/>
      <ellipse cx="93" cy="72" rx="7.5" ry="6" transform="rotate(12 93 72)"/>
    </g>
    <circle cx="42" cy="42" r="1.4" fill="#fff" stroke="none"/>
  </g>
</svg>
