<svg xmlns="http://www.w3.org/2000/svg" viewBox="0 0 120 120">
  <g stroke="#7a2a1c" stroke-width="1.6" stroke-linejoin="round" stroke-linecap="round">
    <path d="M22,58 Q60,50 98,58 Q90,90 60,92 Q30,90 22,58 Z" fill="#fbf3e0"/>
    <path d="M30,60 Q60,48 90,60 Q86,78 60,82 Q34,78 30,60 Z" fill="#b3361f"/>
    <g fill="#e8a05a" stroke="#9c3a22" stroke-width="1.3">
      <circle cx="46" cy="62" r="6"/><circle cx="62" cy="58" r="6"/><circle cx="74" cy="64" r="5.5"/><circle cx="54" cy="70" r="5.5"/>
    </g>
    <g fill="#b3361f" stroke="none"><circle cx="46" cy="62" r="2.4"/><circle cx="62" cy="58" r="2.4"/><circle cx="74" cy="64" r="2.2"/><circle cx="54" cy="70" r="2.2"/></g>
    <path d="M40,54 Q44,48 42,42" fill="none" stroke="#b3361f" stroke-width="1.4"/>
    <circle cx="44" cy="58" r="1.4" fill="#fff" stroke="none"/>
  </g>
</svg>
