<svg xmlns="http://www.w3.org/2000/svg" viewBox="0 0 120 120">
  <g stroke="#7a2a1c" stroke-width="1.6" stroke-linejoin="round" stroke-linecap="round">
    <path d="M40,40 Q60,30 80,40 Q90,54 80,68 Q60,76 40,68 Q30,54 40,40 Z" fill="#c97a3c"/>
    <path d="M46,44 Q60,38 74,44" fill="none" stroke="#a85a2a" stroke-width="1.3"/>
    <path d="M38,52 L26,46 Q24,52 32,56 M82,52 L94,46 Q96,52 88,56" fill="#c97a3c"/>
    <path d="M50,68 L46,82 M70,68 L74,82" stroke="#b9763c" stroke-width="3"/>
    <g fill="#fbf3e0"><circle cx="50" cy="48" r="1.4"/><circle cx="64" cy="46" r="1.4"/><circle cx="72" cy="52" r="1.4"/></g>
    <g fill="none" stroke="#e8623f" stroke-width="2"><path d="M40,92 Q44,84 48,92 M56,94 Q60,84 64,94 M72,92 Q76,84 80,92"/></g>
    <circle cx="46" cy="44" r="1.5" fill="#fff" stroke="none"/>
  </g>
</svg>
