<svg xmlns="http://www.w3.org/2000/svg" viewBox="0 0 120 120">
  <g stroke="#7a2a1c" stroke-width="1.6" stroke-linejoin="round" stroke-linecap="round">
    <path d="M24,50 Q44,44 60,46 Q64,40 72,42 Q66,48 66,52 Q88,58 84,74 Q78,86 56,86 Q28,86 24,66 Q22,56 24,50 Z" fill="#fbf3e0"/>
    <path d="M32,58 Q52,52 72,58 Q70,74 54,76 Q34,74 32,58 Z" fill="#f4e8c8"/>
    <path d="M40,62 Q52,57 64,62" fill="none" stroke="#e0c98a" stroke-width="1.3"/>
    <path d="M84,60 Q98,58 102,66 Q98,72 86,70" fill="#fbf3e0"/>
    <circle cx="46" cy="56" r="1.5" fill="#fff" stroke="none"/>
    <path d="M30,80 Q56,90 82,80" fill="none" stroke="#b9763c" stroke-width="1.2"/>
  </g>
</svg>
