<svg xmlns="http://www.w3.org/2000/svg" viewBox="0 0 120 120">
  <g stroke="#7a2a1c" stroke-width="1.6" stroke-linejoin="round" stroke-linecap="round">
    <path d="M18,58 Q60,50 102,58 Q94,90 60,92 Q26,90 18,58 Z" fill="#fbf3e0"/>
    <path d="M24,60 Q60,84 96,60 Q90,64 60,64 Q30,64 24,60 Z" fill="#e7efd2"/>
    <g fill="#7fa860">
      <ellipse cx="44" cy="60" rx="9" ry="6"/>
      <ellipse cx="64" cy="56" rx="9" ry="6"/>
      <ellipse cx="78" cy="62" rx="8" ry="5.5"/>
    </g>
    <circle cx="44" cy="60" r="2.4" fill="#fbf3e0" stroke="#7a2a1c" stroke-width="1"/>
    <circle cx="64" cy="56" r="2.4" fill="#fbf3e0" stroke="#7a2a1c" stroke-width="1"/>
    <circle cx="78" cy="62" r="2.2" fill="#fbf3e0" stroke="#7a2a1c" stroke-width="1"/>
    <path d="M40,58 L48,58 M60,54 L68,54" stroke="#5e7d42" stroke-width="1"/>
    <path d="M50,40 Q54,34 50,28 M66,40 Q70,34 66,28" fill="none" stroke="#c9a25a" stroke-width="1.2"/>
  </g>
</svg>
