<svg xmlns="http://www.w3.org/2000/svg" viewBox="0 0 120 120">
  <g stroke="#7a2a1c" stroke-width="1.6" stroke-linejoin="round" stroke-linecap="round">
    <ellipse cx="60" cy="82" rx="42" ry="11" fill="#fbf3e0"/>
    <path d="M30,62 Q34,50 48,52 Q58,54 56,64 Q50,72 40,70 Q30,68 30,62 Z" fill="#f4a9a0"/>
    <path d="M56,60 Q60,48 76,50 Q90,52 88,64 Q84,74 70,74 Q58,72 56,60 Z" fill="#e8908a"/>
    <path d="M38,58 Q46,54 52,58 M64,58 Q74,54 82,58" fill="none" stroke="#d97a72" stroke-width="1.3"/>
    <path d="M44,64 Q50,61 54,64 M68,64 Q74,61 80,64" fill="none" stroke="#c96860" stroke-width="1"/>
    <circle cx="40" cy="56" r="1.6" fill="#fff" stroke="none"/>
    <circle cx="68" cy="55" r="1.6" fill="#fff" stroke="none"/>
  </g>
</svg>
