<svg xmlns="http://www.w3.org/2000/svg" viewBox="0 0 120 120">
  <g stroke="#7a2a1c" stroke-width="1.6" stroke-linejoin="round" stroke-linecap="round">
    <ellipse cx="60" cy="84" rx="40" ry="10" fill="#fbf3e0"/>
    <path d="M28,56 Q26,44 38,44 L78,44 Q92,44 94,58 Q92,74 76,74 L40,74 Q28,72 28,56 Z" fill="#c97a4a"/>
    <path d="M78,44 L84,34 Q88,36 86,42 M86,48 L94,44 Q96,48 90,52 M84,60 L94,62 Q92,68 86,64" fill="#c97a4a"/>
    <ellipse cx="52" cy="58" rx="16" ry="11" fill="#d98a8a"/>
    <g fill="#fbf3e0"><circle cx="46" cy="56" r="2"/><circle cx="56" cy="54" r="2"/><circle cx="52" cy="62" r="2"/><circle cx="60" cy="60" r="2"/></g>
    <path d="M34,52 Q44,48 52,52" fill="none" stroke="#a85a2a" stroke-width="1.1"/>
    <circle cx="38" cy="50" r="1.4" fill="#fff" stroke="none"/>
  </g>
</svg>
