<svg xmlns="http://www.w3.org/2000/svg" viewBox="0 0 120 120">
  <g stroke="#7a2a1c" stroke-width="1.6" stroke-linejoin="round" stroke-linecap="round">
    <ellipse cx="60" cy="84" rx="40" ry="11" fill="#fbf3e0"/>
    <g fill="none" stroke="#d98a3c" stroke-width="3"><path d="M46,58 L28,46 M46,64 L24,62 M46,72 L30,84"/><path d="M74,58 L92,46 M74,64 L96,62 M74,72 L90,84"/></g>
    <ellipse cx="60" cy="64" rx="20" ry="16" fill="#f0a05a"/>
    <path d="M42,60 Q60,50 78,60" fill="none" stroke="#c87a32" stroke-width="1.2"/>
    <g fill="#d98a3c"><circle cx="50" cy="62" r="1.8"/><circle cx="60" cy="60" r="1.8"/><circle cx="70" cy="62" r="1.8"/><circle cx="55" cy="70" r="1.8"/><circle cx="65" cy="70" r="1.8"/></g>
    <path d="M48,48 L42,38 Q46,36 50,40 Z M72,48 L78,38 Q82,42 78,44 Z" fill="#f0a05a"/>
    <circle cx="51" cy="58" r="1.6" fill="#fff" stroke="none"/>
  </g>
</svg>
