<svg xmlns="http://www.w3.org/2000/svg" viewBox="0 0 120 120">
  <g stroke="#7a2a1c" stroke-width="1.6" stroke-linejoin="round" stroke-linecap="round">
    <path d="M20,56 Q60,48 100,56 Q92,90 60,92 Q28,90 20,56 Z" fill="#fbf3e0"/>
    <path d="M28,58 Q60,48 92,58 Q88,78 60,82 Q32,78 28,58 Z" fill="#cfcabb"/>
    <g fill="#9c9a8e" stroke="#6e6c60" stroke-width="1.1">
      <path d="M38,58 L52,54 L54,66 L40,70 Z"/>
      <path d="M58,54 L72,58 L70,70 L56,66 Z"/>
      <path d="M48,68 L62,66 L62,76 L48,76 Z"/>
    </g>
    <g fill="#7a7868" stroke="none"><circle cx="45" cy="62" r="1"/><circle cx="64" cy="62" r="1"/><circle cx="55" cy="71" r="1"/></g>
    <circle cx="42" cy="56" r="1.4" fill="#fff" stroke="none"/>
  </g>
</svg>
