<svg xmlns="http://www.w3.org/2000/svg" viewBox="0 0 120 120">
  <g stroke="#7a2a1c" stroke-width="1.6" stroke-linejoin="round" stroke-linecap="round">
    <ellipse cx="60" cy="82" rx="42" ry="11" fill="#fbf3e0"/>
    <path d="M36,62 Q34,40 60,38 Q86,40 84,62 Q80,78 60,80 Q40,78 36,62 Z" fill="#f4e8cf"/>
    <path d="M44,58 Q42,44 50,44 Q52,40 56,46 M58,46 Q60,40 64,46 Q72,44 70,58 M50,60 Q60,52 70,60" fill="none" stroke="#c9a86a" stroke-width="1.4"/>
    <path d="M48,56 Q54,48 60,54 Q66,48 72,56 Q66,66 60,64 Q54,66 48,56 Z" fill="#fdfaf2"/>
    <g fill="#c9a86a" stroke="none"><circle cx="46" cy="66" r="1.3"/><circle cx="74" cy="66" r="1.3"/><circle cx="60" cy="72" r="1.3"/></g>
    <circle cx="46" cy="50" r="1.5" fill="#fff" stroke="none"/>
  </g>
</svg>
