<svg xmlns="http://www.w3.org/2000/svg" viewBox="0 0 120 120">
  <g stroke="#7a2a1c" stroke-width="1.6" stroke-linejoin="round" stroke-linecap="round">
    <path d="M24,56 Q60,48 96,56 Q88,88 60,90 Q32,88 24,56 Z" fill="#fbf3e0"/>
    <path d="M30,58 Q60,48 90,58 Q86,76 60,80 Q34,76 30,58 Z" fill="#9c5a28"/>
    <path d="M40,56 L46,50 L52,56 L48,64 L40,62 Z" fill="#c9a25a"/>
    <ellipse cx="62" cy="58" rx="7" ry="5" fill="#e8a05a"/>
    <path d="M58,58 Q62,55 66,58" fill="none" stroke="#9c3a22" stroke-width="1.1"/>
    <path d="M72,62 Q78,58 80,64 Q76,70 70,68 Z" fill="#b9763c"/>
    <path d="M48,68 Q54,64 58,68 Q54,74 48,72 Z" fill="#7a4a22"/>
    <path d="M44,48 Q46,42 50,46" fill="none" stroke="#c9a25a" stroke-width="1.2"/>
    <circle cx="42" cy="54" r="1.4" fill="#fff" stroke="none"/>
  </g>
</svg>
