<svg xmlns="http://www.w3.org/2000/svg" viewBox="0 0 120 120">
  <g stroke="#7a2a1c" stroke-width="1.6" stroke-linejoin="round" stroke-linecap="round">
    <path d="M32,22 Q42,20 44,32 L46,52 Q46,60 40,60 Q34,60 34,52 L30,32 Q30,24 32,22 Z" fill="#7a2418"/>
    <path d="M40,58 Q50,56 52,68 L54,86 Q52,94 44,94 Q36,94 36,86 L34,68 Q34,60 40,58 Z" fill="#8a2a1a"/>
    <path d="M56,30 Q66,28 68,40 L70,60 Q68,68 60,68 Q52,68 52,60 L50,40 Q50,32 56,30 Z" fill="#7a2418"/>
    <g fill="#e8623f"><circle cx="38" cy="34" r="1.6"/><circle cx="42" cy="50" r="1.6"/><circle cx="44" cy="70" r="1.6"/><circle cx="48" cy="84" r="1.6"/><circle cx="60" cy="42" r="1.6"/><circle cx="62" cy="58" r="1.6"/></g>
    <g fill="#f4c95d" stroke="none"><circle cx="40" cy="42" r="1.2"/><circle cx="46" cy="76" r="1.2"/><circle cx="58" cy="50" r="1.2"/></g>
    <path d="M32,22 Q38,16 46,20 M56,30 Q62,24 70,28" fill="none" stroke="#5a1c12" stroke-width="1.6"/>
    <circle cx="36" cy="30" r="1.3" fill="#fff" stroke="none"/>
  </g>
</svg>
