<svg xmlns="http://www.w3.org/2000/svg" viewBox="0 0 120 120">
  <g stroke="#7a2a1c" stroke-width="1.6" stroke-linejoin="round" stroke-linecap="round">
    <ellipse cx="60" cy="84" rx="42" ry="11" fill="#fbf3e0"/>
    <path d="M38,46 Q60,34 82,46 Q92,60 82,74 Q60,82 40,74 Q28,60 38,46 Z" fill="#fdfaf2"/>
    <path d="M44,50 Q60,42 76,50" fill="none" stroke="#e0d8c0" stroke-width="1.2"/>
    <path d="M40,44 Q34,32 44,34 Q46,28 52,36" fill="#e8623f"/>
    <path d="M48,74 L44,84 M70,74 L74,84" stroke="#5e7ca8" stroke-width="3.2"/>
    <path d="M50,56 Q60,50 70,56" fill="none" stroke="#e0c98a" stroke-width="1.3"/>
    <g fill="#7a4a22"><circle cx="50" cy="62" r="1.3"/><circle cx="68" cy="60" r="1.3"/></g>
    <circle cx="48" cy="48" r="1.5" fill="#fff" stroke="none"/>
  </g>
</svg>
