<svg xmlns="http://www.w3.org/2000/svg" viewBox="0 0 120 120">
  <g stroke="#7a2a1c" stroke-width="1.6" stroke-linejoin="round" stroke-linecap="round">
    <path d="M34,24 Q44,22 44,34 L40,80 Q38,92 32,92 Q24,92 26,82 Q30,52 30,34 Q30,26 34,24 Z" fill="#e8dcc0"/>
    <path d="M58,22 Q68,20 68,32 L66,82 Q64,94 56,94 Q48,94 50,84 Q54,50 54,32 Q54,24 58,22 Z" fill="#ddd0b0"/>
    <g fill="#9c8c64"><circle cx="36" cy="40" r="1.4"/><circle cx="34" cy="60" r="1.4"/><circle cx="36" cy="76" r="1.4"/><circle cx="60" cy="40" r="1.4"/><circle cx="58" cy="62" r="1.4"/><circle cx="58" cy="80" r="1.4"/></g>
    <path d="M30,28 Q26,24 34,22 M54,26 Q50,22 58,20" fill="none" stroke="#7a5a32" stroke-width="1.6"/>
    <circle cx="36" cy="32" r="1.3" fill="#fff" stroke="none"/>
  </g>
</svg>
