<svg xmlns="http://www.w3.org/2000/svg" viewBox="0 0 120 120">
  <g stroke="#7a2a1c" stroke-width="1.6" stroke-linejoin="round" stroke-linecap="round">
    <path d="M20,56 Q60,48 100,56 Q92,90 60,92 Q28,90 20,56 Z" fill="#fbf3e0"/>
    <path d="M28,58 Q60,48 92,58 Q88,78 60,82 Q32,78 28,58 Z" fill="#a85a2a"/>
    <path d="M40,58 Q48,52 54,58 Q50,66 42,64 Z" fill="#c97a4a"/>
    <path d="M58,56 Q66,50 72,56 Q68,64 60,62 Z" fill="#c97a4a"/>
    <g fill="#7a4a22"><ellipse cx="50" cy="68" rx="5" ry="3"/><ellipse cx="68" cy="66" rx="5" ry="3"/></g>
    <g fill="#e8c79a"><circle cx="50" cy="67" r="1.6"/><circle cx="68" cy="65" r="1.6"/></g>
    <path d="M44,50 Q46,44 50,48" fill="none" stroke="#c9a25a" stroke-width="1.2"/>
    <circle cx="42" cy="56" r="1.4" fill="#fff" stroke="none"/>
  </g>
</svg>
