<svg xmlns="http://www.w3.org/2000/svg" viewBox="0 0 120 120">
  <g stroke="#7a2a1c" stroke-width="1.6" stroke-linejoin="round" stroke-linecap="round">
    <path d="M30,30 L78,86 M48,24 L92,74" fill="none" stroke="#b9763c" stroke-width="2.4"/>
    <g fill="#c0712f">
      <rect x="34" y="40" width="14" height="11" rx="3" transform="rotate(40 41 45)"/>
      <rect x="44" y="52" width="14" height="11" rx="3" transform="rotate(40 51 57)"/>
      <rect x="54" y="64" width="14" height="11" rx="3" transform="rotate(40 61 69)"/>
    </g>
    <g fill="#e8623f">
      <rect x="52" y="34" width="13" height="10" rx="3" transform="rotate(40 58 39)"/>
      <rect x="62" y="46" width="13" height="10" rx="3" transform="rotate(40 68 51)"/>
      <rect x="72" y="58" width="13" height="10" rx="3" transform="rotate(40 78 63)"/>
    </g>
    <ellipse cx="88" cy="92" rx="20" ry="8" fill="#fbf3e0"/>
    <ellipse cx="88" cy="90" rx="13" ry="5" fill="#c79a52"/>
    <circle cx="40" cy="40" r="1.4" fill="#fff" stroke="none"/>
  </g>
</svg>
