<svg xmlns="http://www.w3.org/2000/svg" viewBox="0 0 120 120">
  <g stroke="#7a2a1c" stroke-width="1.6" stroke-linejoin="round" stroke-linecap="round">
    <path d="M18,54 Q60,46 102,54 Q94,90 60,92 Q26,90 18,54 Z" fill="#fbf3e0"/>
    <path d="M26,58 Q60,50 94,58 Q88,72 60,76 Q32,72 26,58 Z" fill="#f4efe0"/>
    <path d="M40,58 Q48,52 56,57 Q64,52 72,58 Q70,68 60,70 Q46,68 40,58 Z" fill="#fdfaf2"/>
    <path d="M46,60 Q56,55 66,60" fill="none" stroke="#e8e0c8" stroke-width="1.1"/>
    <path d="M50,46 Q54,40 50,34" fill="none" stroke="#c9c4a8" stroke-width="1.6"/>
    <g fill="#7fa860"><circle cx="44" cy="64" r="1.3"/><circle cx="74" cy="62" r="1.3"/></g>
    <circle cx="48" cy="56" r="1.5" fill="#fff" stroke="none"/>
  </g>
</svg>
