<svg xmlns="http://www.w3.org/2000/svg" viewBox="0 0 120 120">
  <g stroke="#7a2a1c" stroke-width="1.6" stroke-linejoin="round" stroke-linecap="round">
    <path d="M28,54 Q60,46 92,54 L86,92 Q60,100 34,92 Z" fill="#b9763c"/>
    <path d="M28,54 Q60,64 92,54 Q60,58 28,54 Z" fill="#a5662f"/>
    <ellipse cx="60" cy="72" rx="20" ry="11" fill="#7fa860"/>
    <g fill="#5e7d42"><circle cx="50" cy="70" r="2.4"/><circle cx="62" cy="68" r="2.4"/><circle cx="70" cy="74" r="2.4"/><circle cx="56" cy="76" r="2.4"/></g>
    <ellipse cx="60" cy="68" rx="6" ry="4" fill="#e8623f"/>
    <path d="M55,66 L50,62 M65,66 L70,62" stroke="#c0492f" stroke-width="1.4"/>
    <path d="M60,40 L60,22 M52,40 Q44,30 50,22" fill="none" stroke="#b9763c" stroke-width="2.6"/>
    <circle cx="52" cy="68" r="1.4" fill="#fff" stroke="none"/>
  </g>
</svg>
