<svg xmlns="http://www.w3.org/2000/svg" viewBox="0 0 120 120">
  <g stroke="#7a2a1c" stroke-width="1.6" stroke-linejoin="round" stroke-linecap="round">
    <path d="M18,52 Q60,36 102,52 Q92,64 60,62 Q28,64 18,52 Z" fill="#f4c95d"/>
    <path d="M22,54 Q60,68 98,54 Q96,86 60,90 Q24,86 22,54 Z" fill="#f0b863"/>
    <path d="M30,60 Q60,72 90,60 Q86,80 60,82 Q34,80 30,60 Z" fill="#7fa860"/>
    <g fill="#fdfaf2">
      <ellipse cx="46" cy="66" rx="4" ry="3"/><ellipse cx="56" cy="70" rx="4" ry="3"/><ellipse cx="66" cy="66" rx="4" ry="3"/><ellipse cx="60" cy="76" rx="4" ry="3"/><ellipse cx="50" cy="74" rx="4" ry="3"/>
    </g>
    <g fill="#e8d6b0" stroke="none"><circle cx="46" cy="66" r="1.2"/><circle cx="66" cy="66" r="1.2"/></g>
    <circle cx="38" cy="54" r="1.4" fill="#fff" stroke="none"/>
  </g>
</svg>
