<svg xmlns="http://www.w3.org/2000/svg" viewBox="0 0 120 120">
  <g stroke="#7a2a1c" stroke-width="1.6" stroke-linejoin="round" stroke-linecap="round">
    <path d="M22,58 Q60,50 98,58 Q90,90 60,92 Q30,90 22,58 Z" fill="#fbf3e0"/>
    <path d="M30,60 Q60,48 90,60 Q86,78 60,82 Q34,78 30,60 Z" fill="#b3361f"/>
    <g fill="#e8623f"><path d="M40,60 Q46,58 44,64 Q40,66 40,60 Z"/><path d="M58,56 Q64,54 62,60 Q57,62 58,56 Z"/><path d="M72,62 Q78,60 76,66 Q71,68 72,62 Z"/><path d="M50,68 Q56,66 54,72 Q49,74 50,68 Z"/></g>
    <g fill="#7a2a1c"><circle cx="48" cy="62" r="1.3"/><circle cx="66" cy="64" r="1.3"/><circle cx="58" cy="72" r="1.3"/></g>
    <circle cx="44" cy="56" r="1.5" fill="#fff" stroke="none"/>
  </g>
</svg>
