<svg xmlns="http://www.w3.org/2000/svg" viewBox="0 0 120 120">
  <title>清蒸口虾蛄</title>
  <path d="M30,60 C32,44 50,38 60,40 C70,38 88,44 90,60 C88,76 78,84 60,82 C42,84 32,76 30,60 Z" fill="#f0a05a" stroke="#7a2a1c" stroke-width="1.6"/>
  <ellipse cx="60" cy="45" rx="16" ry="10" fill="#e8623f" stroke="#7a2a1c" stroke-width="1"/>
  <circle cx="52" cy="42" r="2.5" fill="#7a2a1c"/>
  <circle cx="68" cy="42" r="2.5" fill="#7a2a1c"/>
  <line x1="44" y1="40" x2="36" y2="30" stroke="#7a2a1c" stroke-width="1.5" stroke-linecap="round"/>
  <line x1="76" y1="40" x2="84" y2="30" stroke="#7a2a1c" stroke-width="1.5" stroke-linecap="round"/>
  <line x1="36" y1="62" x2="24" y2="58" stroke="#f0a05a" stroke-width="2.5" stroke-linecap="round"/>
  <line x1="84" y1="62" x2="96" y2="58" stroke="#f0a05a" stroke-width="2.5" stroke-linecap="round"/>
  <line x1="36" y1="70" x2="24" y2="68" stroke="#f0a05a" stroke-width="2.5" stroke-linecap="round"/>
  <line x1="84" y1="70" x2="96" y2="68" stroke="#f0a05a" stroke-width="2.5" stroke-linecap="round"/>
  <ellipse cx="60" cy="72" rx="26" ry="8" fill="#f4c95d" stroke="#7a2a1c" stroke-width="1" opacity="0.7"/></svg>