<svg xmlns="http://www.w3.org/2000/svg" viewBox="0 0 120 120"><g stroke="#7a2a1c" stroke-width="1.6" stroke-linejoin="round" stroke-linecap="round"><path d="M26 58 Q60 92 94 58 Z" fill="#fbf3e0"/><path d="M24 58 H96" fill="none"/><path d="M40 54 q4 8 0 16" stroke="#7a2a1c" stroke-width="0.9" fill="none"/><path d="M46 54 q4 8 0 16" stroke="#7a2a1c" stroke-width="0.9" fill="none"/><path d="M52 54 q4 8 0 16" stroke="#7a2a1c" stroke-width="0.9" fill="none"/><path d="M58 54 q4 8 0 16" stroke="#7a2a1c" stroke-width="0.9" fill="none"/><path d="M64 54 q4 8 0 16" stroke="#7a2a1c" stroke-width="0.9" fill="none"/><path d="M70 54 q4 8 0 16" stroke="#7a2a1c" stroke-width="0.9" fill="none"/><path d="M40 64 Q48 58 56 64 Q48 70 40 64 Z" fill="#f4c95d"/><path d="M58 60 Q66 54 74 60 Q66 66 58 60 Z" fill="#f4c95d"/><circle cx="62" cy="74" r="1.6" fill="#7fa860" stroke="none"/><circle cx="50" cy="76" r="1.6" fill="#7fa860" stroke="none"/></g></svg>