<svg xmlns="http://www.w3.org/2000/svg" viewBox="0 0 120 120">
  <title>金葱望潮</title>
  <ellipse cx="60" cy="50" rx="22" ry="18" fill="#f0a05a" stroke="#7a2a1c" stroke-width="1.6"/>
  <circle cx="52" cy="44" r="3.5" fill="#7a2a1c"/>
  <circle cx="68" cy="44" r="3.5" fill="#7a2a1c"/>
  <path d="M38,62 C30,75 28,90 34,95" fill="none" stroke="#f0a05a" stroke-width="4" stroke-linecap="round"/>
  <path d="M46,66 C40,80 40,95 46,100" fill="none" stroke="#f0a05a" stroke-width="4" stroke-linecap="round"/>
  <path d="M54,68 C52,82 54,96 58,100" fill="none" stroke="#f0a05a" stroke-width="4" stroke-linecap="round"/>
  <path d="M66,68 C68,82 66,96 62,100" fill="none" stroke="#f0a05a" stroke-width="4" stroke-linecap="round"/>
  <path d="M74,66 C80,80 80,95 74,100" fill="none" stroke="#f0a05a" stroke-width="4" stroke-linecap="round"/>
  <path d="M82,62 C90,75 92,90 86,95" fill="none" stroke="#f0a05a" stroke-width="4" stroke-linecap="round"/>
  <circle cx="60" cy="105" r="5" fill="#f4c95d" stroke="#7a2a1c" stroke-width="1"/></svg>