<svg xmlns="http://www.w3.org/2000/svg" viewBox="0 0 120 120">
  <g stroke="#7a2a1c" stroke-width="1.6" stroke-linejoin="round" stroke-linecap="round">
    <!-- jamonero stand base -->
    <path d="M28,96 L92,96" fill="none" stroke-width="2"/>
    <path d="M40,96 L48,84" fill="none"/>
    <path d="M80,96 L72,84" fill="none"/>
    <!-- support clamp -->
    <path d="M86,40 L86,70" fill="none" stroke-width="2"/>
    <!-- ham leg (angled), deep red -->
    <path d="M26,60 Q40,40 70,44 Q88,46 86,58 Q84,70 60,76 Q36,80 26,68 Z" fill="#c0492f"/>
    <!-- cut face (米白 fat edge) -->
    <path d="M26,60 Q30,52 38,50 Q42,62 38,72 Q30,70 26,68 Z" fill="#fbf3e0"/>
    <!-- white fat marbling -->
    <path d="M48,54 Q56,56 64,54" fill="none" stroke="#fff" stroke-width="1.4"/>
    <path d="M46,62 Q56,64 66,62" fill="none" stroke="#fff" stroke-width="1.4"/>
    <path d="M54,68 Q62,69 70,67" fill="none" stroke="#fff" stroke-width="1.4"/>
    <!-- hoof -->
    <path d="M70,44 Q82,38 88,42 Q84,46 86,50 Q78,50 72,50 Z" fill="#9a5a2a"/>
    <path d="M82,42 L82,48" fill="none"/>
    <circle cx="34" cy="58" r="1.6" fill="#fff" stroke="none"/>
  </g>
</svg>
