<svg xmlns="http://www.w3.org/2000/svg" viewBox="0 0 120 120">
  <g stroke="#7a2a1c" stroke-width="1.6" stroke-linejoin="round" stroke-linecap="round">
    <!-- steam -->
    <path d="M52,36 Q48,28 54,22" fill="none"/>
    <path d="M68,36 Q64,28 70,22" fill="none"/>
    <!-- clay pot body -->
    <path d="M24,60 Q24,96 60,98 Q96,96 96,60 Z" fill="#b9763c"/>
    <!-- pot rim -->
    <ellipse cx="60" cy="60" rx="36" ry="10" fill="#d9863c"/>
    <!-- ears/handles -->
    <path d="M22,62 Q14,64 20,70" fill="#9a5a2a"/>
    <path d="M98,62 Q106,64 100,70" fill="#9a5a2a"/>
    <!-- warm broth -->
    <ellipse cx="60" cy="60" rx="30" ry="7.5" fill="#f0a05a"/>
    <!-- pale shoot strands -->
    <path d="M40,60 Q50,53 60,59" fill="none" stroke-width="1.4"/>
    <path d="M46,62 Q56,55 68,60" fill="none" stroke-width="1.4"/>
    <path d="M52,58 Q62,52 74,58" fill="none" stroke-width="1.4"/>
    <ellipse cx="46" cy="60" rx="6" ry="3" fill="#fbf3e0"/>
    <ellipse cx="70" cy="60" rx="6" ry="3" fill="#fbf3e0"/>
    <!-- chicken chunk -->
    <ellipse cx="60" cy="62" rx="7" ry="4" fill="#f4c95d"/>
    <circle cx="50" cy="58" r="1.5" fill="#fff" stroke="none"/>
  </g>
</svg>
