<svg xmlns="http://www.w3.org/2000/svg" viewBox="0 0 120 120">
  <g stroke="#7a2a1c" stroke-width="1.6" stroke-linejoin="round" stroke-linecap="round">
    <!-- legs left -->
    <path d="M40,56 Q24,52 18,42" fill="none"/>
    <path d="M38,64 Q22,64 14,58" fill="none"/>
    <path d="M40,72 Q24,76 18,86" fill="none"/>
    <path d="M44,80 Q34,90 30,98" fill="none"/>
    <!-- legs right -->
    <path d="M80,56 Q96,52 102,42" fill="none"/>
    <path d="M82,64 Q98,64 106,58" fill="none"/>
    <path d="M80,72 Q96,76 102,86" fill="none"/>
    <path d="M76,80 Q86,90 90,98" fill="none"/>
    <!-- claws -->
    <path d="M42,50 Q30,40 24,42 Q30,46 26,50 Q34,52 42,56 Z" fill="#c0492f"/>
    <path d="M78,50 Q90,40 96,42 Q90,46 94,50 Q86,52 78,56 Z" fill="#c0492f"/>
    <!-- round body -->
    <ellipse cx="60" cy="66" rx="22" ry="18" fill="#e8623f"/>
    <!-- shell pattern -->
    <path d="M48,58 Q60,52 72,58" fill="none"/>
    <path d="M46,68 Q60,62 74,68" fill="none"/>
    <path d="M60,52 L60,80" fill="none"/>
    <circle cx="52" cy="60" r="1.8" fill="#fff" stroke="none"/>
  </g>
</svg>
