<svg xmlns="http://www.w3.org/2000/svg" viewBox="0 0 120 120">
  <g stroke="#7a2a1c" stroke-width="1.6" stroke-linejoin="round" stroke-linecap="round">
    <!-- bowl -->
    <ellipse cx="60" cy="82" rx="36" ry="11" fill="#fbf3e0"/>
    <path d="M24,78 Q60,100 96,78 L94,84 Q60,104 26,84 Z" fill="#e8d6b0"/>
    <!-- glossy mashed potato mound -->
    <path d="M30,76 Q44,46 60,46 Q76,46 90,76 Q60,86 30,76 Z" fill="#f4c95d"/>
    <!-- mound sheen -->
    <path d="M46,60 Q54,52 64,58" fill="none" stroke="#fff" stroke-width="2"/>
    <!-- red chili oil on top -->
    <path d="M44,68 Q60,58 78,68 Q66,74 44,72 Z" fill="#e8623f"/>
    <ellipse cx="54" cy="69" rx="4" ry="2.5" fill="#c0492f"/>
    <!-- green chives -->
    <path d="M50,66 L56,62" fill="none" stroke="#7fa860" stroke-width="2"/>
    <path d="M64,66 L70,62" fill="none" stroke="#7fa860" stroke-width="2"/>
    <path d="M58,68 L62,64" fill="none" stroke="#7fa860" stroke-width="2"/>
    <circle cx="70" cy="68" r="1.5" fill="#fff" stroke="none"/>
  </g>
</svg>
