<svg xmlns="http://www.w3.org/2000/svg" viewBox="0 0 1000 500" preserveAspectRatio="xMidYMid meet">
  <!-- 暖纸背景 -->
  <rect x="0" y="0" width="1000" height="500" fill="#f4ecd8"/>

  <!-- 经纬淡线，营造手绘海图感 -->
  <g stroke="#e6d8b4" stroke-width="1" fill="none" opacity="0.7">
    <line x1="0" y1="125" x2="1000" y2="125"/>
    <line x1="0" y1="250" x2="1000" y2="250"/>
    <line x1="0" y1="375" x2="1000" y2="375"/>
    <line x1="250" y1="0" x2="250" y2="500"/>
    <line x1="500" y1="0" x2="500" y2="500"/>
    <line x1="750" y1="0" x2="750" y2="500"/>
  </g>

  <g stroke="#b9985a" stroke-width="2" stroke-linejoin="round" stroke-linecap="round" fill="#e9dcb6">

    <!-- 中国大陆主体（雄鸡轮廓）：
         喀什(48,201)西尖 → 新疆阿勒泰(242,69) → 内蒙古北缘 → 漠河北尖(790,14)
         → 东北黑龙江凸出(984,83)/(936,139) → 鸭绿江(823,194) → 山东(790,236)
         → 东海岸 上海(774,319) → 福建(750,389) → 广州(645,431)/北部湾
         → 云南西南(403,417) → 西藏拉萨(290,339)/西藏西(97,292) → 回到喀什 -->
    <path d="M48,201
             C70,176 110,168 140,158
             C170,148 200,120 242,69
             C268,60 300,72 330,80
             C310,100 280,108 260,118
             C300,108 360,98 420,96
             C470,94 510,108 516,167
             C560,150 610,138 629,125
             C660,118 700,108 740,96
             C770,76 786,40 790,14
             C812,30 850,40 871,52
             C900,66 960,72 984,83
             C960,98 920,98 900,100
             C940,112 960,126 936,139
             C912,150 880,148 860,140
             C880,158 860,182 823,194
             C800,206 800,224 790,236
             C812,250 808,280 800,300
             C792,316 782,310 774,319
             C766,330 762,322 758,333
             C756,360 754,372 750,389
             C730,404 700,416 672,420
             C640,428 612,438 596,451
             C568,448 540,440 516,430
             C490,420 460,420 440,418
             C420,414 408,420 403,417
             C376,408 340,392 322,378
             C300,362 312,350 290,339
             C260,322 200,316 160,310
             C130,302 110,296 97,292
             C76,278 70,250 78,232
             C66,222 50,214 48,201 Z"/>

    <!-- 海南岛：(597,479)附近小岛 -->
    <path d="M580,464 C596,458 614,466 614,480 C610,492 590,494 580,486 C572,478 572,468 580,464 Z"/>

    <!-- 台湾：(782,403)东南独立岛屿 -->
    <path d="M774,386 C786,382 796,394 794,416 C792,436 784,446 776,438 C768,426 766,396 774,386 Z"/>

  </g>
</svg>
