<svg xmlns="http://www.w3.org/2000/svg" viewBox="0 0 1000 500" preserveAspectRatio="xMidYMid meet">
  <!-- 暖纸背景 -->
  <rect x="0" y="0" width="1000" height="500" fill="#f4ecd8"/>

  <!-- 经纬淡线，营造手绘海图感 -->
  <g stroke="#e6d8b4" stroke-width="1" fill="none" opacity="0.7">
    <line x1="0" y1="125" x2="1000" y2="125"/>
    <line x1="0" y1="250" x2="1000" y2="250"/>
    <line x1="0" y1="375" x2="1000" y2="375"/>
    <line x1="250" y1="0" x2="250" y2="500"/>
    <line x1="500" y1="0" x2="500" y2="500"/>
    <line x1="750" y1="0" x2="750" y2="500"/>
  </g>

  <g stroke="#b9985a" stroke-width="2" stroke-linejoin="round" stroke-linecap="round" fill="#e9dcb6">

    <!-- 中国大陆主体：西起新疆(x~75)，北至阿勒泰/呼伦贝尔(y~60)，东到江浙沿海(x~800)，南到两广(y~400) -->
    <path d="M75,205
             C70,178 96,150 140,138
             C180,128 210,108 244,78
             C262,62 290,58 312,72
             C300,96 268,108 250,118
             C282,116 320,108 352,100
             C380,94 410,98 432,112
             C450,96 478,84 510,80
             C548,76 590,70 628,66
             C670,60 712,58 736,72
             C758,84 760,108 744,124
             C772,118 802,124 818,144
             C832,160 828,184 812,196
             C828,210 824,236 802,248
             C816,262 810,288 788,300
             C800,316 794,340 770,350
             C778,368 766,390 742,398
             C708,410 668,406 636,392
             C606,402 568,400 542,384
             C520,398 488,396 466,378
             C440,392 404,388 384,368
             C360,378 326,372 308,352
             C290,366 258,362 244,342
             C262,328 296,332 322,330
             C300,316 272,314 252,300
             C284,296 322,302 352,308
             C328,288 296,282 272,268
             C238,272 200,266 178,244
             C158,254 128,250 116,230
             C98,236 78,224 75,205 Z"/>

    <!-- 海南岛 -->
    <path d="M560,418 C576,412 592,420 592,434 C588,446 570,448 560,440 C552,432 552,422 560,418 Z"/>

    <!-- 台湾：东南独立小岛 (约 780,429) -->
    <path d="M772,408 C784,404 794,414 792,430 C790,444 782,452 774,444 C766,434 764,416 772,408 Z"/>

  </g>
</svg>
