<svg xmlns="http://www.w3.org/2000/svg" viewBox="0 0 1000 500" preserveAspectRatio="xMidYMid meet">
  <!-- 暖纸背景 -->
  <rect x="0" y="0" width="1000" height="500" fill="#f4ecd8"/>

  <!-- 经纬淡线，营造手绘海图感 -->
  <g stroke="#e6d8b4" stroke-width="1" fill="none" opacity="0.7">
    <line x1="0" y1="125" x2="1000" y2="125"/>
    <line x1="0" y1="250" x2="1000" y2="250"/>
    <line x1="0" y1="375" x2="1000" y2="375"/>
    <line x1="250" y1="0" x2="250" y2="500"/>
    <line x1="500" y1="0" x2="500" y2="500"/>
    <line x1="750" y1="0" x2="750" y2="500"/>
  </g>

  <g stroke="#b9985a" stroke-width="2.5" stroke-linejoin="round" stroke-linecap="round" fill="#e3d3a8">

    <!-- 北美洲：左侧三分之一上部 -->
    <path d="M70,70
             C120,55 175,60 205,80
             C235,98 240,120 225,140
             C238,150 235,168 218,178
             C232,190 222,210 200,214
             C188,232 168,238 152,228
             C150,250 132,262 118,250
             C112,236 122,222 116,210
             C96,200 80,182 84,162
             C70,150 62,128 74,112
             C60,100 56,80 70,70 Z"/>

    <!-- 中美洲细桥 -->
    <path d="M198,214 C212,228 214,248 226,262 C236,272 230,286 220,282 C212,272 206,256 196,244 C190,232 190,220 198,214 Z"/>

    <!-- 南美洲：左下 -->
    <path d="M250,288
             C272,278 296,284 308,302
             C322,320 318,344 306,360
             C312,382 300,408 286,430
             C278,452 262,466 250,456
             C242,440 252,420 248,402
             C236,386 232,360 244,342
             C236,322 236,300 250,288 Z"/>

    <!-- 欧亚大陆：横跨地图中部，欧洲在左(x~480-520) 中国在右(x~760-820) -->
    <path d="M430,118
             C455,104 488,108 512,100
             C540,92 575,96 600,108
             C640,100 690,104 730,114
             C775,120 815,128 845,148
             C868,160 872,182 856,196
             C870,206 862,228 842,230
             C820,244 792,246 766,238
             C740,250 706,248 684,236
             C660,246 628,244 608,232
             C580,242 548,238 528,224
             C512,236 490,236 476,222
             C452,230 426,224 414,206
             C396,212 378,202 380,184
             C362,178 358,156 374,144
             C392,128 414,128 430,118 Z"/>

    <!-- 不列颠群岛 小块 -->
    <path d="M452,128 C462,122 470,128 468,138 C464,150 452,150 448,142 C446,134 446,130 452,128 Z"/>

    <!-- 印度次大陆 向下凸出 -->
    <path d="M640,232 C654,250 660,276 650,294 C642,306 628,302 626,288 C620,268 622,246 630,234 C634,230 638,230 640,232 Z"/>

    <!-- 阿拉伯半岛 -->
    <path d="M560,232 C576,242 584,262 572,276 C562,284 552,276 550,262 C548,248 550,238 560,232 Z"/>

    <!-- 非洲：欧洲下方，地图中部偏下 -->
    <path d="M470,250
             C500,242 536,248 556,266
             C572,282 568,306 556,322
             C566,344 558,372 540,392
             C528,414 506,422 492,408
             C482,420 462,418 456,402
             C448,382 460,362 454,344
             C440,326 438,300 452,282
             C456,266 460,254 470,250 Z"/>

    <!-- 马达加斯加 -->
    <path d="M580,360 C590,366 592,384 584,396 C578,402 570,398 570,388 C570,374 572,362 580,360 Z"/>

    <!-- 东南亚岛屿群 -->
    <path d="M780,272 C800,266 818,274 822,288 C816,300 798,300 786,294 C776,290 772,278 780,272 Z"/>
    <path d="M812,300 C828,296 842,304 840,316 C830,324 814,320 808,310 C806,304 808,302 812,300 Z"/>

    <!-- 大洋洲：右下 -->
    <path d="M820,360
             C850,350 888,356 910,374
             C928,388 924,410 906,420
             C882,432 850,430 826,418
             C808,408 802,386 812,372
             C814,366 816,362 820,360 Z"/>

    <!-- 新西兰 -->
    <path d="M930,420 C940,424 942,440 932,450 C926,454 920,448 922,438 C924,428 926,422 930,420 Z"/>

  </g>
</svg>
