<svg xmlns="http://www.w3.org/2000/svg" viewBox="0 0 1000 500" preserveAspectRatio="xMidYMid meet">
  <!-- 暖纸背景 -->
  <rect x="0" y="0" width="1000" height="500" fill="#f4ecd8"/>

  <!-- 经纬淡线，营造手绘海图感 -->
  <g stroke="#e6d8b4" stroke-width="1" fill="none" opacity="0.7">
    <line x1="0" y1="125" x2="1000" y2="125"/>
    <line x1="0" y1="250" x2="1000" y2="250"/>
    <line x1="0" y1="375" x2="1000" y2="375"/>
    <line x1="250" y1="0" x2="250" y2="500"/>
    <line x1="500" y1="0" x2="500" y2="500"/>
    <line x1="750" y1="0" x2="750" y2="500"/>
  </g>

  <g stroke="#b9985a" stroke-width="2" stroke-linejoin="round" stroke-linecap="round" fill="#e9dcb6">

    <!-- 北美洲：阿拉斯加(W)→加拿大→哈德逊湾凹陷→美东→佛罗里达，西海岸下到墨西哥 -->
    <path d="M40,80
             C70,66 110,68 130,82
             C150,72 175,76 188,90
             C210,84 240,86 262,96
             C252,84 258,76 272,80
             C282,90 280,104 268,110
             C282,114 286,128 274,134
             C262,140 250,134 246,126
             C238,138 224,140 214,132
             C218,148 210,162 196,164
             C206,176 200,194 186,196
             C198,204 196,222 180,222
             C176,210 178,196 170,188
             C160,196 150,190 150,178
             C140,184 130,178 130,166
             C118,170 108,162 110,150
             C96,154 84,146 86,134
             C72,138 60,128 64,116
             C50,118 42,106 52,98
             C40,96 32,86 40,80 Z"/>

    <!-- 墨西哥尖端 + 佛罗里达 + 中美地峡到巴拿马 -->
    <path d="M188,196
             C200,206 214,210 220,224
             C232,232 244,244 252,258
             C262,266 272,260 282,266
             C290,274 284,284 274,280
             C266,270 256,262 246,256
             C238,246 226,238 216,232
             C206,224 196,214 188,206
             C184,202 184,198 188,196 Z"/>
    <!-- 佛罗里达半岛 -->
    <path d="M256,196 C262,206 264,220 258,228 C252,230 248,222 250,212 C250,204 252,198 256,196 Z"/>

    <!-- 格陵兰 -->
    <path d="M360,30
             C386,20 410,28 410,52
             C410,72 396,90 378,92
             C362,88 358,72 360,56
             C354,48 350,38 360,30 Z"/>

    <!-- 南美洲：北宽(委内瑞拉/巴西凸出)，南渐尖到火地岛 -->
    <path d="M256,272
             C284,262 318,266 340,280
             C360,292 372,288 388,294
             C400,302 396,316 382,318
             C392,332 388,356 374,372
             C382,396 372,424 356,446
             C348,464 332,476 320,468
             C312,454 320,436 318,420
             C306,406 300,386 308,368
             C298,352 296,328 308,312
             C296,300 280,300 270,290
             C260,286 252,280 256,272 Z"/>

    <!-- 欧洲：地中海以北，斯堪的纳维亚向上到 y~50，不列颠群岛分离 -->
    <path d="M468,162
             C474,150 470,138 480,128
             C492,118 512,116 522,126
             C540,116 562,114 572,96
             C580,80 596,72 602,84
             C600,104 588,118 576,126
             C588,134 586,150 572,154
             C556,162 540,158 528,152
             C516,162 498,166 486,162
             C478,170 470,170 468,162 Z"/>
    <!-- 不列颠群岛 -->
    <path d="M452,128 C462,120 472,128 470,140 C466,152 454,152 450,142 C448,134 448,132 452,128 Z"/>
    <!-- 冰岛 -->
    <path d="M438,66 C448,62 456,68 452,76 C446,82 436,80 434,72 C434,68 436,66 438,66 Z"/>

    <!-- 非洲：地中海顶(y~185)，西部凸出(几内亚湾)，南尖到好望角(550,410) -->
    <path d="M470,186
             C500,178 538,182 564,190
             C586,196 606,194 622,200
             C636,210 638,228 626,238
             C638,248 636,262 622,266
             C620,280 612,294 600,302
             C604,322 596,346 580,366
             C572,388 560,404 550,410
             C540,404 532,388 528,370
             C516,360 504,344 504,326
             C490,318 478,302 480,284
             C468,276 460,260 466,244
             C456,232 456,212 466,200
             C462,194 462,188 470,186 Z"/>

    <!-- 马达加斯加 -->
    <path d="M626,338 C636,342 640,360 632,376 C626,384 618,380 618,368 C618,352 620,340 626,338 Z"/>

    <!-- 亚洲主体：从乌拉尔/中东接欧洲，横到西伯利亚东北、远东海岸 -->
    <path d="M572,126
             C600,116 640,114 672,108
             C700,104 730,108 760,104
             C800,98 850,96 890,86
             C920,80 950,84 950,98
             C946,110 920,112 900,112
             C924,118 950,116 970,124
             C950,132 920,130 900,128
             C922,138 944,140 944,152
             C922,156 896,150 876,144
             C892,154 884,170 866,168
             C852,178 836,176 826,168
             C816,180 798,180 786,170
             C800,188 794,210 776,216
             C766,232 750,242 732,238
             C716,250 696,250 684,238
             C672,250 654,250 644,240
             C636,254 620,260 610,250
             C616,236 610,222 622,212
             C636,210 638,228 644,224
             C636,210 638,194 628,184
             C616,196 600,196 590,186
             C582,176 586,160 600,156
             C584,152 570,142 572,126 Z"/>

    <!-- 阿拉伯半岛 -->
    <path d="M610,200
             C628,206 646,210 656,222
             C664,236 656,252 642,252
             C628,250 618,236 612,222
             C606,212 602,202 610,200 Z"/>

    <!-- 印度次大陆：三角形指向下方到 (703,228)/印度尖端(714,266) -->
    <path d="M680,206
             C700,210 724,212 736,224
             C730,240 720,252 714,266
             C708,256 700,248 694,238
             C684,230 674,220 680,206 Z"/>

    <!-- 东南亚半岛 + 大岛群（苏门答腊/婆罗洲/新几内亚） -->
    <path d="M760,236 C772,244 778,258 774,272 C766,280 758,272 756,260 C754,250 752,240 760,236 Z"/>
    <path d="M770,278 C792,272 812,280 818,294 C812,306 792,306 778,300 C768,294 762,282 770,278 Z"/>
    <path d="M820,300 C842,294 862,302 868,316 C860,328 838,326 824,318 C816,312 812,304 820,300 Z"/>
    <path d="M876,316 C898,312 918,320 920,334 C910,344 888,340 876,332 C870,326 870,320 876,316 Z"/>

    <!-- 日本列岛：(889,169) 附近小弧 -->
    <path d="M884,148 C894,150 898,162 892,172 C888,182 880,186 876,178 C880,168 876,156 884,148 Z"/>
    <path d="M866,182 C874,184 876,194 870,200 C864,202 860,196 862,190 C862,186 862,184 866,182 Z"/>

    <!-- 澳大利亚：紧凑，中心约(900,400)，约克角向北 -->
    <path d="M838,360
             C868,350 904,354 928,366
             C948,376 952,396 936,408
             C916,422 884,424 856,414
             C836,406 824,386 830,372
             C832,366 834,362 838,360 Z"/>
    <!-- 约克角 -->
    <path d="M894,344 C900,350 900,360 894,362 C890,360 888,352 890,346 C890,344 892,344 894,344 Z"/>

    <!-- 新西兰 -->
    <path d="M952,420 C962,424 964,442 952,454 C946,458 940,452 942,440 C944,428 946,422 952,420 Z"/>

  </g>
</svg>
